<?xml version="1.0" encoding="UTF-8"?>
<!DOCTYPE svg PUBLIC "-//W3C//DTD SVG 1.1//EN" "http://www.w3.org/Graphics/SVG/1.1/DTD/svg11.dtd">
<svg xmlns="http://www.w3.org/2000/svg" version="1.1" width="2682px" height="1105px" style="shape-rendering:geometricPrecision; text-rendering:geometricPrecision; image-rendering:optimizeQuality; fill-rule:evenodd; clip-rule:evenodd" xmlns:xlink="http://www.w3.org/1999/xlink">
<g><path style="opacity:0.967" fill="#fcbe13" d="M 250.5,251.5 C 274.643,250.809 286.143,262.476 285,286.5C 280.046,303.897 268.546,311.73 250.5,310C 233.121,305.091 225.287,293.591 227,275.5C 230.349,262.985 238.182,254.985 250.5,251.5 Z"/></g>
<g><path style="opacity:0.983" fill="#0a3080" d="M 336.5,251.5 C 397.834,251.333 459.168,251.5 520.5,252C 592.265,258.446 647.765,291.613 687,351.5C 722.363,411.513 728.697,474.513 706,540.5C 681.06,602.607 637.226,645.274 574.5,668.5C 620.488,713.654 666.654,758.654 713,803.5C 721.275,815.96 721.609,828.627 714,841.5C 701.57,853.892 687.737,855.726 672.5,847C 610.362,787.196 548.529,727.03 487,666.5C 478.561,650.63 481.061,636.796 494.5,625C 497.382,623.392 500.382,622.059 503.5,621C 578.456,616.969 628.622,579.803 654,509.5C 670.248,442.249 652.082,386.416 599.5,342C 575.426,324.195 548.426,313.862 518.5,311C 458.167,310.667 397.833,310.333 337.5,310C 319.321,305.134 311.488,293.301 314,274.5C 317.006,262.328 324.506,254.661 336.5,251.5 Z"/></g>
<g><path style="opacity:0.965" fill="#0a3080" d="M 1060.5,308.5 C 1072.17,308.5 1083.83,308.5 1095.5,308.5C 1095.33,335.169 1095.5,361.835 1096,388.5C 1106.96,374.089 1117.79,359.589 1128.5,345C 1142.84,344.167 1157.18,344.334 1171.5,345.5C 1156.68,364.156 1141.68,382.656 1126.5,401C 1141.63,419.635 1156.96,438.135 1172.5,456.5C 1157.83,457.833 1143.17,457.833 1128.5,456.5C 1117.67,441.5 1106.83,426.5 1096,411.5C 1095.5,426.83 1095.33,442.163 1095.5,457.5C 1083.83,457.5 1072.17,457.5 1060.5,457.5C 1060.5,407.833 1060.5,358.167 1060.5,308.5 Z"/></g>
<g><path style="opacity:0.975" fill="#0a3080" d="M 807.5,316.5 C 832.877,316.047 858.21,316.547 883.5,318C 905.378,323.713 916.712,337.88 917.5,360.5C 917.582,373.433 912.915,384.266 903.5,393C 898.264,396.447 892.93,399.613 887.5,402.5C 897.833,420.5 908.167,438.5 918.5,456.5C 905.167,457.833 891.833,457.833 878.5,456.5C 869.421,439.34 860.087,422.34 850.5,405.5C 847.914,404.52 845.247,404.187 842.5,404.5C 842.5,422.167 842.5,439.833 842.5,457.5C 830.833,457.5 819.167,457.5 807.5,457.5C 807.5,410.5 807.5,363.5 807.5,316.5 Z M 842.5,345.5 C 852.58,345.077 862.58,345.577 872.5,347C 881.898,353.462 884.064,361.962 879,372.5C 877.062,375.106 874.562,376.939 871.5,378C 861.891,379.359 852.224,379.859 842.5,379.5C 842.5,368.167 842.5,356.833 842.5,345.5 Z"/></g>
<g><path style="opacity:0.97" fill="#0a3080" d="M 976.5,343.5 C 1023.34,340.677 1045.68,362.677 1043.5,409.5C 1017.83,409.5 992.167,409.5 966.5,409.5C 967.737,421.904 974.57,428.904 987,430.5C 994.18,429.831 999.68,426.498 1003.5,420.5C 1016.17,419.167 1028.83,419.167 1041.5,420.5C 1034.78,441.72 1020.45,454.22 998.5,458C 976.567,461.734 958.067,455.567 943,439.5C 932.451,424.095 928.784,407.095 932,388.5C 937.013,363.654 951.847,348.654 976.5,343.5 Z M 983.5,371.5 C 992.962,370.652 1000.46,373.985 1006,381.5C 1007.08,384.063 1007.58,386.729 1007.5,389.5C 993.833,389.5 980.167,389.5 966.5,389.5C 967.511,385.144 969.344,381.144 972,377.5C 975.575,374.798 979.408,372.798 983.5,371.5 Z"/></g>
<g><path style="opacity:0.966" fill="#0a3080" d="M 1217.5,343.5 C 1234.2,340.902 1248.37,345.568 1260,357.5C 1260.5,353.179 1260.67,348.846 1260.5,344.5C 1272.5,344.5 1284.5,344.5 1296.5,344.5C 1296.5,382.167 1296.5,419.833 1296.5,457.5C 1284.5,457.5 1272.5,457.5 1260.5,457.5C 1260.67,453.154 1260.5,448.821 1260,444.5C 1244.89,459.088 1227.39,462.588 1207.5,455C 1186.73,442.975 1176.73,424.809 1177.5,400.5C 1177,371.395 1190.33,352.395 1217.5,343.5 Z M 1235.5,373.5 C 1255.75,376.951 1263.92,388.951 1260,409.5C 1254.32,425.258 1243.48,430.758 1227.5,426C 1217.66,420.658 1212.99,412.325 1213.5,401C 1213.38,385.684 1220.72,376.517 1235.5,373.5 Z"/></g>
<g><path style="opacity:0.975" fill="#0a3080" d="M 1479.5,343.5 C 1493.04,341.471 1505.38,344.305 1516.5,352C 1518.71,353.873 1520.54,356.04 1522,358.5C 1522.5,353.845 1522.67,349.179 1522.5,344.5C 1534.17,344.5 1545.83,344.5 1557.5,344.5C 1557.5,382.167 1557.5,419.833 1557.5,457.5C 1545.83,457.5 1534.17,457.5 1522.5,457.5C 1522.67,452.821 1522.5,448.155 1522,443.5C 1516.06,451.23 1508.22,456.063 1498.5,458C 1465.35,460.526 1445.85,445.359 1440,412.5C 1436.54,391.151 1441.71,372.318 1455.5,356C 1462.61,349.948 1470.61,345.781 1479.5,343.5 Z M 1497.5,373.5 C 1514.02,375.185 1522.35,384.351 1522.5,401C 1522.56,416.938 1514.73,426.104 1499,428.5C 1483.25,426.086 1475.42,416.919 1475.5,401C 1475.34,385.672 1482.68,376.505 1497.5,373.5 Z"/></g>
<g><path style="opacity:0.963" fill="#0a3080" d="M 1613.5,343.5 C 1628.35,341.58 1642.35,344.08 1655.5,351C 1665.99,358.81 1671.66,369.31 1672.5,382.5C 1661.5,382.5 1650.5,382.5 1639.5,382.5C 1637.93,374.103 1632.76,369.77 1624,369.5C 1616.18,369.315 1612.52,372.982 1613,380.5C 1614.52,382.348 1616.35,383.848 1618.5,385C 1632.25,388.103 1645.58,392.436 1658.5,398C 1671.06,406.675 1675.56,418.509 1672,433.5C 1669.76,441.072 1665.26,446.905 1658.5,451C 1645.01,458.111 1630.67,460.444 1615.5,458C 1598.24,455.723 1585.74,446.889 1578,431.5C 1576.72,427.586 1575.88,423.586 1575.5,419.5C 1587.17,419.5 1598.83,419.5 1610.5,419.5C 1612.41,428.223 1617.91,432.556 1627,432.5C 1635.82,433.017 1639.82,429.017 1639,420.5C 1637.42,418.959 1635.59,417.792 1633.5,417C 1622.17,413.667 1610.83,410.333 1599.5,407C 1580.81,398.278 1574.97,384.111 1582,364.5C 1589.18,352.487 1599.68,345.487 1613.5,343.5 Z"/></g>
<g><path style="opacity:0.975" fill="#0a3080" d="M 1726.5,343.5 C 1740.04,341.471 1752.38,344.305 1763.5,352C 1765.71,353.873 1767.54,356.04 1769,358.5C 1769.5,353.845 1769.67,349.179 1769.5,344.5C 1781.17,344.5 1792.83,344.5 1804.5,344.5C 1804.5,382.167 1804.5,419.833 1804.5,457.5C 1792.83,457.5 1781.17,457.5 1769.5,457.5C 1769.67,452.821 1769.5,448.155 1769,443.5C 1763.06,451.23 1755.22,456.063 1745.5,458C 1712.35,460.533 1692.85,445.366 1687,412.5C 1683.54,391.151 1688.71,372.318 1702.5,356C 1709.61,349.948 1717.61,345.781 1726.5,343.5 Z M 1744.5,373.5 C 1761.02,375.185 1769.35,384.351 1769.5,401C 1769.56,416.938 1761.73,426.104 1746,428.5C 1730.25,426.086 1722.42,416.919 1722.5,401C 1722.34,385.672 1729.68,376.505 1744.5,373.5 Z"/></g>
<g><path style="opacity:0.965" fill="#0a3080" d="M 1307.5,344.5 C 1320.52,344.168 1333.52,344.501 1346.5,345.5C 1354.91,367.906 1363.41,390.239 1372,412.5C 1380.07,390.128 1388.23,367.795 1396.5,345.5C 1409.15,344.501 1421.82,344.168 1434.5,344.5C 1411.83,399.668 1388.66,454.668 1365,509.5C 1352.58,510.489 1340.08,510.822 1327.5,510.5C 1335.13,491.074 1343.46,471.908 1352.5,453C 1337.08,416.988 1322.08,380.821 1307.5,344.5 Z"/></g>
<g><path style="opacity:0.967" fill="#fcbe13" d="M 163.5,345.5 C 188.631,345.131 200.131,357.464 198,382.5C 192.607,398.545 181.44,405.712 164.5,404C 145.23,398.72 137.397,386.22 141,366.5C 144.881,355.447 152.381,348.447 163.5,345.5 Z"/></g>
<g><path style="opacity:0.985" fill="#0a3080" d="M 249.5,345.5 C 336.167,345.333 422.834,345.5 509.5,346C 557.234,352.089 591.068,376.922 611,420.5C 630.902,476.012 619.402,523.845 576.5,564C 556.137,580.506 532.804,589.84 506.5,592C 464.107,592.016 421.774,592.683 379.5,594C 376.538,596.287 374.371,599.12 373,602.5C 372.667,619.167 372.333,635.833 372,652.5C 369.688,664.81 362.522,672.644 350.5,676C 331.64,679.109 319.473,671.609 314,653.5C 313.333,621.167 313.333,588.833 314,556.5C 316.833,544.333 324.333,536.833 336.5,534C 392.5,533.667 448.5,533.333 504.5,533C 535.796,527.704 554.629,509.537 561,478.5C 563.75,447.156 551.25,424.323 523.5,410C 517.765,407.399 511.765,405.733 505.5,405C 419.131,404.987 332.798,404.32 246.5,403C 230.319,395.471 224.152,382.971 228,365.5C 232.171,355.491 239.338,348.825 249.5,345.5 Z"/></g>
<g><path style="opacity:0.985" fill="#0a3080" d="M 250.5,439.5 C 303.501,439.333 356.501,439.5 409.5,440C 424.317,443.955 431.983,453.622 432.5,469C 431.404,487.222 421.737,497.055 403.5,498.5C 401.571,498.46 399.738,498.127 398,497.5C 363.905,498.33 329.738,498.83 295.5,499C 290.572,500.927 287.406,504.427 286,509.5C 285.333,587.5 285.333,665.5 286,743.5C 292.397,774.532 311.397,791.199 343,793.5C 361.938,793.031 377.272,785.364 389,770.5C 404,752.167 419,733.833 434,715.5C 444.146,706.424 455.646,704.258 468.5,709C 486.01,720.206 489.844,735.039 480,753.5C 464,772.833 448,792.167 432,811.5C 397.432,848.603 355.599,860.437 306.5,847C 259.854,829.588 233.354,796.088 227,746.5C 226.333,652.167 226.333,557.833 227,463.5C 230.349,450.985 238.182,442.985 250.5,439.5 Z"/></g>
<g><path style="opacity:0.966" fill="#fcbe13" d="M 491.5,439.5 C 516.131,438.964 527.631,450.964 526,475.5C 519.676,494.131 506.843,501.298 487.5,497C 471.331,489.494 465.164,476.994 469,459.5C 473.301,449.022 480.801,442.355 491.5,439.5 Z"/></g>
<g><path style="opacity:0.977" fill="#0a3080" d="M 1546.5,505.5 C 1558.17,505.5 1569.83,505.5 1581.5,505.5C 1581.33,532.169 1581.5,558.835 1582,585.5C 1592.45,570.717 1603.28,556.217 1614.5,542C 1628.84,541.167 1643.18,541.334 1657.5,542.5C 1641.98,560.854 1626.64,579.354 1611.5,598C 1627.02,616.02 1642.35,634.187 1657.5,652.5C 1642.83,653.833 1628.17,653.833 1613.5,652.5C 1603,638.167 1592.5,623.833 1582,609.5C 1581.5,624.163 1581.33,638.83 1581.5,653.5C 1569.83,653.5 1558.17,653.5 1546.5,653.5C 1546.5,604.167 1546.5,554.833 1546.5,505.5 Z"/></g>
<g><path style="opacity:0.964" fill="#0a3080" d="M 2428.5,505.5 C 2440.5,505.5 2452.5,505.5 2464.5,505.5C 2464.33,531.835 2464.5,558.169 2465,584.5C 2475.38,570.244 2485.88,556.078 2496.5,542C 2510.84,541.167 2525.18,541.334 2539.5,542.5C 2524.68,561.156 2509.68,579.656 2494.5,598C 2509.44,616.614 2524.78,634.948 2540.5,653C 2525.83,653.667 2511.17,653.667 2496.5,653C 2486,638.5 2475.5,624 2465,609.5C 2464.5,624.163 2464.33,638.83 2464.5,653.5C 2452.5,653.5 2440.5,653.5 2428.5,653.5C 2428.5,604.167 2428.5,554.833 2428.5,505.5 Z"/></g>
<g><path style="opacity:0.975" fill="#0a3080" d="M 807.5,512.5 C 828.503,512.333 849.503,512.5 870.5,513C 901.915,516.417 916.749,533.917 915,565.5C 911.765,585.404 900.265,597.57 880.5,602C 867.88,603.374 855.213,603.874 842.5,603.5C 842.5,620.167 842.5,636.833 842.5,653.5C 830.833,653.5 819.167,653.5 807.5,653.5C 807.5,606.5 807.5,559.5 807.5,512.5 Z M 842.5,541.5 C 851.915,541.083 861.248,541.583 870.5,543C 879.192,548.746 881.692,556.579 878,566.5C 875.578,571.256 871.745,574.09 866.5,575C 858.507,575.5 850.507,575.666 842.5,575.5C 842.5,564.167 842.5,552.833 842.5,541.5 Z"/></g>
<g><path style="opacity:0.962" fill="#0a3080" d="M 1928.5,512.5 C 1940.5,512.5 1952.5,512.5 1964.5,512.5C 1964.5,550.5 1964.5,588.5 1964.5,626.5C 1979.17,626.5 1993.83,626.5 2008.5,626.5C 2008.5,635.5 2008.5,644.5 2008.5,653.5C 1981.83,653.5 1955.17,653.5 1928.5,653.5C 1928.5,606.5 1928.5,559.5 1928.5,512.5 Z"/></g>
<g><path style="opacity:0.969" fill="#0a3080" d="M 1810.5,514.5 C 1822.5,514.5 1834.5,514.5 1846.5,514.5C 1846.5,523.5 1846.5,532.5 1846.5,541.5C 1853.83,541.5 1861.17,541.5 1868.5,541.5C 1868.5,551.167 1868.5,560.833 1868.5,570.5C 1861.17,570.5 1853.83,570.5 1846.5,570.5C 1846.33,586.837 1846.5,603.17 1847,619.5C 1847.5,621.333 1848.67,622.5 1850.5,623C 1856.43,624.239 1862.43,624.739 1868.5,624.5C 1868.5,634.167 1868.5,643.833 1868.5,653.5C 1857.1,653.909 1845.77,653.409 1834.5,652C 1818.74,646.998 1810.9,636.165 1811,619.5C 1810.5,603.17 1810.33,586.837 1810.5,570.5C 1806.17,570.5 1801.83,570.5 1797.5,570.5C 1797.5,560.833 1797.5,551.167 1797.5,541.5C 1801.83,541.5 1806.17,541.5 1810.5,541.5C 1810.5,532.5 1810.5,523.5 1810.5,514.5 Z"/></g>
<g><path style="opacity:0.97" fill="#0a3080" d="M 978.5,539.5 C 1021.22,541.549 1040.88,563.883 1037.5,606.5C 1011.83,606.5 986.167,606.5 960.5,606.5C 963.051,621.786 972.051,628.286 987.5,626C 992.232,624.765 995.565,621.932 997.5,617.5C 1010.15,616.501 1022.82,616.168 1035.5,616.5C 1029.99,636.175 1017.32,648.675 997.5,654C 973.722,659.187 953.555,653.02 937,635.5C 927.135,621.006 923.468,605.006 926,587.5C 931.283,558.047 948.783,542.047 978.5,539.5 Z M 976.5,568.5 C 990.841,566.648 999.508,572.648 1002.5,586.5C 988.496,586.667 974.496,586.5 960.5,586C 962.915,577.421 968.249,571.588 976.5,568.5 Z"/></g>
<g><path style="opacity:0.976" fill="#0a3080" d="M 1180.5,539.5 C 1195.57,538.567 1207.74,543.901 1217,555.5C 1217.5,550.845 1217.67,546.179 1217.5,541.5C 1229.17,541.5 1240.83,541.5 1252.5,541.5C 1252.5,578.833 1252.5,616.167 1252.5,653.5C 1240.83,653.5 1229.17,653.5 1217.5,653.5C 1217.67,649.154 1217.5,644.821 1217,640.5C 1202.14,655.674 1184.64,659.508 1164.5,652C 1149.47,644.63 1139.97,632.796 1136,616.5C 1131.01,595.338 1134.34,575.671 1146,557.5C 1155.18,546.827 1166.68,540.827 1180.5,539.5 Z M 1190.5,570.5 C 1205.5,570.416 1214.33,577.749 1217,592.5C 1219.33,607.683 1213.5,618.183 1199.5,624C 1183,626 1173.17,618.833 1170,602.5C 1168.11,585.89 1174.94,575.223 1190.5,570.5 Z"/></g>
<g><path style="opacity:0.973" fill="#0a3080" d="M 1450.5,539.5 C 1465.11,538.754 1477.28,543.754 1487,554.5C 1487.5,550.179 1487.67,545.846 1487.5,541.5C 1499.17,541.5 1510.83,541.5 1522.5,541.5C 1522.67,582.501 1522.5,623.501 1522,664.5C 1515.74,694.553 1497.24,709.22 1466.5,708.5C 1446.06,709.969 1429.22,702.969 1416,687.5C 1411.39,680.497 1408.89,672.831 1408.5,664.5C 1420.17,664.5 1431.83,664.5 1443.5,664.5C 1445.22,670.719 1449.22,674.886 1455.5,677C 1466,680.248 1475.17,678.081 1483,670.5C 1484.89,667.382 1486.23,664.049 1487,660.5C 1487.67,653.833 1487.67,647.167 1487,640.5C 1474.3,654.183 1458.8,658.683 1440.5,654C 1419.9,646.728 1408.07,632.228 1405,610.5C 1401.99,592.696 1404.99,576.029 1414,560.5C 1423.02,547.908 1435.19,540.908 1450.5,539.5 Z M 1460.5,570.5 C 1481.01,572.457 1489.84,583.791 1487,604.5C 1481.49,622.17 1469.99,628.003 1452.5,622C 1444.12,616.078 1439.79,607.911 1439.5,597.5C 1440.31,583.385 1447.31,574.385 1460.5,570.5 Z"/></g>
<g><path style="opacity:0.975" fill="#0a3080" d="M 1709.5,539.5 C 1724.11,538.754 1736.28,543.754 1746,554.5C 1746.5,550.179 1746.67,545.846 1746.5,541.5C 1758.17,541.5 1769.83,541.5 1781.5,541.5C 1781.5,578.833 1781.5,616.167 1781.5,653.5C 1769.83,653.5 1758.17,653.5 1746.5,653.5C 1746.67,649.154 1746.5,644.821 1746,640.5C 1737.35,651 1726.18,656 1712.5,655.5C 1685.04,652.876 1668.87,637.876 1664,610.5C 1660.61,590.756 1664.61,572.756 1676,556.5C 1685.02,546.407 1696.19,540.74 1709.5,539.5 Z M 1719.5,570.5 C 1740.01,572.457 1748.84,583.791 1746,604.5C 1740.49,622.17 1728.99,628.003 1711.5,622C 1703.12,616.078 1698.79,607.911 1698.5,597.5C 1699.31,583.385 1706.31,574.385 1719.5,570.5 Z"/></g>
<g><path style="opacity:0.97" fill="#0a3080" d="M 2333.5,539.5 C 2348.28,538.977 2360.45,544.31 2370,555.5C 2370.5,550.845 2370.67,546.179 2370.5,541.5C 2382.17,541.5 2393.83,541.5 2405.5,541.5C 2405.5,578.833 2405.5,616.167 2405.5,653.5C 2393.83,653.5 2382.17,653.5 2370.5,653.5C 2370.67,648.821 2370.5,644.155 2370,639.5C 2361.41,650.46 2350.08,655.793 2336,655.5C 2311.16,654.241 2295.5,641.574 2289,617.5C 2283.62,596.456 2286.62,576.79 2298,558.5C 2307.33,547.253 2319.17,540.919 2333.5,539.5 Z M 2342.5,570.5 C 2359.63,571.297 2368.97,580.297 2370.5,597.5C 2367.62,620.593 2355.29,628.426 2333.5,621C 2323.95,612.986 2320.45,602.82 2323,590.5C 2325.68,579.986 2332.18,573.319 2342.5,570.5 Z"/></g>
<g><path style="opacity:0.978" fill="#0a3080" d="M 1116.5,540.5 C 1119.5,540.5 1122.5,540.5 1125.5,540.5C 1125.5,552.833 1125.5,565.167 1125.5,577.5C 1117.33,576.95 1109.33,577.783 1101.5,580C 1096.6,581.902 1093.43,585.402 1092,590.5C 1090.55,611.446 1090.05,632.446 1090.5,653.5C 1078.83,653.5 1067.17,653.5 1055.5,653.5C 1055.5,616.167 1055.5,578.833 1055.5,541.5C 1067.17,541.5 1078.83,541.5 1090.5,541.5C 1090.33,546.844 1090.5,552.177 1091,557.5C 1097.84,549.122 1106.34,543.455 1116.5,540.5 Z"/></g>
<g><path style="opacity:0.975" fill="#0a3080" d="M 1335.5,540.5 C 1367.32,537.497 1384.82,551.831 1388,583.5C 1388.5,606.831 1388.67,630.164 1388.5,653.5C 1376.83,653.5 1365.17,653.5 1353.5,653.5C 1353.95,630.456 1353.45,607.456 1352,584.5C 1349.01,575.075 1342.51,570.075 1332.5,569.5C 1321.12,570.382 1314.29,576.382 1312,587.5C 1311.5,609.497 1311.33,631.497 1311.5,653.5C 1299.83,653.5 1288.17,653.5 1276.5,653.5C 1276.5,616.167 1276.5,578.833 1276.5,541.5C 1288.17,541.5 1299.83,541.5 1311.5,541.5C 1311.33,545.846 1311.5,550.179 1312,554.5C 1318.3,547.105 1326.14,542.438 1335.5,540.5 Z"/></g>
<g><path style="opacity:0.977" fill="#0a3080" d="M 2218.5,540.5 C 2247.4,537.513 2264.56,550.179 2270,578.5C 2270.5,603.498 2270.67,628.498 2270.5,653.5C 2258.83,653.5 2247.17,653.5 2235.5,653.5C 2235.67,631.164 2235.5,608.831 2235,586.5C 2232.26,575.935 2225.43,570.268 2214.5,569.5C 2204.49,570.075 2197.99,575.075 2195,584.5C 2193.56,607.461 2193.06,630.461 2193.5,653.5C 2181.83,653.5 2170.17,653.5 2158.5,653.5C 2158.5,616.167 2158.5,578.833 2158.5,541.5C 2170.17,541.5 2181.83,541.5 2193.5,541.5C 2193.33,545.846 2193.5,550.179 2194,554.5C 2200.84,547.336 2209,542.669 2218.5,540.5 Z"/></g>
<g><path style="opacity:0.971" fill="#0a3080" d="M 2023.5,541.5 C 2035.17,541.5 2046.83,541.5 2058.5,541.5C 2058.33,564.502 2058.5,587.502 2059,610.5C 2063.35,622.431 2071.85,627.264 2084.5,625C 2092,622.833 2096.83,618 2099,610.5C 2100.42,587.535 2100.92,564.535 2100.5,541.5C 2112.17,541.5 2123.83,541.5 2135.5,541.5C 2135.5,578.833 2135.5,616.167 2135.5,653.5C 2123.83,653.5 2112.17,653.5 2100.5,653.5C 2100.67,649.154 2100.5,644.821 2100,640.5C 2085.32,654.979 2068.16,658.812 2048.5,652C 2034.62,645.111 2026.46,633.944 2024,618.5C 2023.5,592.835 2023.33,567.169 2023.5,541.5 Z"/></g>
<g><path style="opacity:0.966" fill="#fcbe13" d="M 337.5,706.5 C 356.06,705.189 367.56,713.522 372,731.5C 373.412,749.182 365.579,760.348 348.5,765C 330.972,766.657 319.472,759.157 314,742.5C 311.719,723.657 319.553,711.657 337.5,706.5 Z"/></g>
<g><path style="opacity:0.882" fill="#fcbe13" d="M 1457.5,715.5 C 1463.52,714.197 1467.19,716.53 1468.5,722.5C 1466.17,729.726 1461.67,731.393 1455,727.5C 1452.52,722.669 1453.36,718.669 1457.5,715.5 Z"/></g>
<g><path style="opacity:0.92" fill="#fcbe13" d="M 1304.5,718.5 C 1308.5,718.5 1312.5,718.5 1316.5,718.5C 1316.33,726.174 1316.5,733.841 1317,741.5C 1327.39,732.768 1338.22,732.268 1349.5,740C 1359.22,751.474 1360.72,763.974 1354,777.5C 1347.5,786.661 1338.67,790.161 1327.5,788C 1323.64,786.819 1320.14,784.986 1317,782.5C 1316.51,784.134 1316.34,785.801 1316.5,787.5C 1312.5,787.5 1308.5,787.5 1304.5,787.5C 1304.5,764.5 1304.5,741.5 1304.5,718.5 Z M 1330.5,744.5 C 1340.39,745.558 1345.72,751.058 1346.5,761C 1344.77,775.357 1337.1,780.357 1323.5,776C 1316.08,768.997 1314.58,760.83 1319,751.5C 1322.23,747.979 1326.06,745.646 1330.5,744.5 Z"/></g>
<g><path style="opacity:0.893" fill="#fcbe13" d="M 1430.5,718.5 C 1434.5,718.5 1438.5,718.5 1442.5,718.5C 1442.5,741.5 1442.5,764.5 1442.5,787.5C 1438.5,787.5 1434.5,787.5 1430.5,787.5C 1430.5,764.5 1430.5,741.5 1430.5,718.5 Z"/></g>
<g><path style="opacity:0.908" fill="#fcbe13" d="M 1094.5,719.5 C 1101.17,719.5 1107.83,719.5 1114.5,719.5C 1114.5,742.167 1114.5,764.833 1114.5,787.5C 1110.5,787.5 1106.5,787.5 1102.5,787.5C 1102.5,768.167 1102.5,748.833 1102.5,729.5C 1099.83,729.5 1097.17,729.5 1094.5,729.5C 1094.5,726.167 1094.5,722.833 1094.5,719.5 Z"/></g>
<g><path style="opacity:0.909" fill="#fcbe13" d="M 823.5,721.5 C 833.811,719.662 842.645,722.329 850,729.5C 852.006,732.536 852.84,735.869 852.5,739.5C 848.486,739.666 844.486,739.499 840.5,739C 836.811,731.664 831.145,729.664 823.5,733C 818.167,737.333 818.167,741.667 823.5,746C 829.363,748.399 835.363,750.399 841.5,752C 851.805,756.11 855.639,763.61 853,774.5C 848.842,783.924 841.509,788.591 831,788.5C 823.185,788.565 816.519,785.898 811,780.5C 808.715,776.813 807.548,772.813 807.5,768.5C 811.514,768.334 815.514,768.501 819.5,769C 822.619,777.826 828.619,780.493 837.5,777C 843.406,772.591 843.74,767.925 838.5,763C 830.894,760.181 823.227,757.514 815.5,755C 804.847,745.06 804.847,735.06 815.5,725C 818.158,723.522 820.825,722.355 823.5,721.5 Z"/></g>
<g><path style="opacity:0.926" fill="#fcbe13" d="M 865.5,722.5 C 869.833,722.5 874.167,722.5 878.5,722.5C 885.099,739.036 892.265,755.369 900,771.5C 906.892,755.382 914.059,739.382 921.5,723.5C 925.783,722.508 930.116,722.174 934.5,722.5C 934.5,744.167 934.5,765.833 934.5,787.5C 930.5,787.5 926.5,787.5 922.5,787.5C 922.667,774.163 922.5,760.829 922,747.5C 916.167,760.5 910.333,773.5 904.5,786.5C 901.291,787.787 898.125,787.787 895,786.5C 889,773.167 883,759.833 877,746.5C 876.5,760.163 876.333,773.829 876.5,787.5C 872.833,787.5 869.167,787.5 865.5,787.5C 865.5,765.833 865.5,744.167 865.5,722.5 Z"/></g>
<g><path style="opacity:0.937" fill="#fcbe13" d="M 947.5,722.5 C 951.167,722.5 954.833,722.5 958.5,722.5C 958.334,731.839 958.5,741.173 959,750.5C 966.833,741.333 974.667,732.167 982.5,723C 987.5,722.333 992.5,722.333 997.5,723C 988.167,733.667 978.833,744.333 969.5,755C 978.833,765.667 988.167,776.333 997.5,787C 992.5,787.667 987.5,787.667 982.5,787C 974.295,778.464 966.462,769.631 959,760.5C 958.5,769.494 958.334,778.494 958.5,787.5C 954.833,787.5 951.167,787.5 947.5,787.5C 947.5,765.833 947.5,744.167 947.5,722.5 Z"/></g>
<g><path style="opacity:0.929" fill="#fcbe13" d="M 1005.5,722.5 C 1009.88,722.174 1014.22,722.508 1018.5,723.5C 1028.33,738.5 1038.17,753.5 1048,768.5C 1048.5,753.17 1048.67,737.837 1048.5,722.5C 1052.17,722.5 1055.83,722.5 1059.5,722.5C 1059.5,744.167 1059.5,765.833 1059.5,787.5C 1055.45,787.824 1051.45,787.491 1047.5,786.5C 1037.47,771.635 1027.64,756.635 1018,741.5C 1017.5,756.83 1017.33,772.163 1017.5,787.5C 1013.5,787.5 1009.5,787.5 1005.5,787.5C 1005.5,765.833 1005.5,744.167 1005.5,722.5 Z"/></g>
<g><path style="opacity:0.917" fill="#fcbe13" d="M 1153.5,722.5 C 1163.84,722.334 1174.17,722.5 1184.5,723C 1197.9,727.625 1202.4,736.792 1198,750.5C 1194.84,756.327 1190.01,759.827 1183.5,761C 1177.51,761.499 1171.51,761.666 1165.5,761.5C 1165.5,770.167 1165.5,778.833 1165.5,787.5C 1161.5,787.5 1157.5,787.5 1153.5,787.5C 1153.5,765.833 1153.5,744.167 1153.5,722.5 Z M 1165.5,731.5 C 1171.24,731.211 1176.91,731.711 1182.5,733C 1186.24,734.8 1187.9,737.8 1187.5,742C 1187.52,746.321 1185.52,749.321 1181.5,751C 1176.18,751.499 1170.84,751.666 1165.5,751.5C 1165.5,744.833 1165.5,738.167 1165.5,731.5 Z"/></g>
<g><path style="opacity:0.954" fill="#fcbe13" d="M 1291.5,734.5 C 1292.83,734.5 1294.17,734.5 1295.5,734.5C 1295.5,738.5 1295.5,742.5 1295.5,746.5C 1289.73,745.913 1285.23,747.913 1282,752.5C 1280.56,764.09 1280.06,775.757 1280.5,787.5C 1276.83,787.5 1273.17,787.5 1269.5,787.5C 1269.5,770.167 1269.5,752.833 1269.5,735.5C 1273.17,735.5 1276.83,735.5 1280.5,735.5C 1280.34,737.199 1280.51,738.866 1281,740.5C 1284.07,737.554 1287.57,735.554 1291.5,734.5 Z"/></g>
<g><path style="opacity:0.921" fill="#fcbe13" d="M 1384.5,734.5 C 1392.17,733.791 1399,735.791 1405,740.5C 1405.49,738.866 1405.66,737.199 1405.5,735.5C 1409.5,735.5 1413.5,735.5 1417.5,735.5C 1417.5,752.833 1417.5,770.167 1417.5,787.5C 1413.5,787.5 1409.5,787.5 1405.5,787.5C 1405.66,785.801 1405.49,784.134 1405,782.5C 1393.7,790.628 1382.54,790.461 1371.5,782C 1363.99,771.397 1362.49,759.897 1367,747.5C 1371.07,740.571 1376.91,736.238 1384.5,734.5 Z M 1389.5,744.5 C 1402.59,746.662 1407.76,754.329 1405,767.5C 1399.09,779.086 1390.92,781.086 1380.5,773.5C 1373.73,763.846 1374.73,755.013 1383.5,747C 1385.61,746.155 1387.61,745.322 1389.5,744.5 Z"/></g>
<g><path style="opacity:0.896" fill="#fcbe13" d="M 1501.5,734.5 C 1512.82,733.239 1520.98,737.572 1526,747.5C 1527.42,760.773 1527.92,774.106 1527.5,787.5C 1523.5,787.5 1519.5,787.5 1515.5,787.5C 1515.67,776.162 1515.5,764.828 1515,753.5C 1510.96,745.282 1504.8,743.116 1496.5,747C 1494.19,748.637 1492.69,750.804 1492,753.5C 1491.5,764.828 1491.33,776.162 1491.5,787.5C 1487.5,787.5 1483.5,787.5 1479.5,787.5C 1479.5,770.167 1479.5,752.833 1479.5,735.5C 1483.5,735.5 1487.5,735.5 1491.5,735.5C 1491.34,736.873 1491.51,738.207 1492,739.5C 1494.91,737.132 1498.07,735.465 1501.5,734.5 Z"/></g>
<g><path style="opacity:0.928" fill="#fcbe13" d="M 1556.5,734.5 C 1564.74,733.683 1571.91,736.016 1578,741.5C 1578.5,739.527 1578.66,737.527 1578.5,735.5C 1582.17,735.5 1585.83,735.5 1589.5,735.5C 1589.67,755.503 1589.5,775.503 1589,795.5C 1586.83,804.333 1581.33,809.833 1572.5,812C 1559.99,815.047 1549.49,811.881 1541,802.5C 1539.86,799.568 1539.02,796.568 1538.5,793.5C 1542.55,793.176 1546.55,793.509 1550.5,794.5C 1553.19,800.099 1557.69,802.765 1564,802.5C 1570.13,802.696 1574.46,800.029 1577,794.5C 1578.24,790.221 1578.58,785.888 1578,781.5C 1568.65,789.381 1558.49,790.548 1547.5,785C 1536.94,775.618 1533.78,764.118 1538,750.5C 1541.61,742.048 1547.78,736.715 1556.5,734.5 Z M 1561.5,744.5 C 1571.45,745.781 1577.11,751.447 1578.5,761.5C 1576.45,775.518 1568.78,780.351 1555.5,776C 1548.01,769.006 1546.51,760.84 1551,751.5C 1553.7,747.748 1557.2,745.415 1561.5,744.5 Z"/></g>
<g><path style="opacity:0.922" fill="#fcbe13" d="M 1619.5,734.5 C 1627.74,733.683 1634.91,736.016 1641,741.5C 1641.5,739.527 1641.66,737.527 1641.5,735.5C 1645.17,735.5 1648.83,735.5 1652.5,735.5C 1652.67,755.503 1652.5,775.503 1652,795.5C 1649.83,804.333 1644.33,809.833 1635.5,812C 1626.84,813.336 1618.51,812.336 1610.5,809C 1604.79,805.415 1601.79,800.248 1601.5,793.5C 1605.55,793.176 1609.55,793.509 1613.5,794.5C 1616.19,800.099 1620.69,802.765 1627,802.5C 1638.82,800.567 1643.49,793.567 1641,781.5C 1631.65,789.381 1621.49,790.548 1610.5,785C 1599.17,774.548 1596.34,762.048 1602,747.5C 1606.05,740.599 1611.88,736.266 1619.5,734.5 Z M 1624.5,744.5 C 1634.46,745.789 1640.12,751.456 1641.5,761.5C 1639.46,775.513 1631.79,780.346 1618.5,776C 1611.01,769.006 1609.51,760.84 1614,751.5C 1616.7,747.748 1620.2,745.415 1624.5,744.5 Z"/></g>
<g><path style="opacity:0.92" fill="#fcbe13" d="M 1682.5,734.5 C 1690.17,733.791 1697,735.791 1703,740.5C 1703.49,738.866 1703.66,737.199 1703.5,735.5C 1707.5,735.5 1711.5,735.5 1715.5,735.5C 1715.5,752.833 1715.5,770.167 1715.5,787.5C 1711.5,787.5 1707.5,787.5 1703.5,787.5C 1703.66,785.801 1703.49,784.134 1703,782.5C 1692.15,790.467 1681.32,790.467 1670.5,782.5C 1664.69,776.752 1662.03,769.752 1662.5,761.5C 1662.36,747.324 1669.03,738.324 1682.5,734.5 Z M 1687.5,744.5 C 1700.59,746.662 1705.76,754.329 1703,767.5C 1697.09,779.086 1688.92,781.086 1678.5,773.5C 1671.7,763.947 1672.7,755.113 1681.5,747C 1683.61,746.155 1685.61,745.322 1687.5,744.5 Z"/></g>
<g><path style="opacity:0.914" fill="#fcbe13" d="M 1208.5,735.5 C 1212.17,735.5 1215.83,735.5 1219.5,735.5C 1219.09,747.562 1219.59,759.562 1221,771.5C 1225.77,778.533 1231.94,780.033 1239.5,776C 1241.89,774.048 1243.39,771.548 1244,768.5C 1244.5,757.505 1244.67,746.505 1244.5,735.5C 1248.5,735.5 1252.5,735.5 1256.5,735.5C 1256.5,752.833 1256.5,770.167 1256.5,787.5C 1252.5,787.5 1248.5,787.5 1244.5,787.5C 1244.66,786.127 1244.49,784.793 1244,783.5C 1235.19,789.529 1226.03,790.029 1216.5,785C 1212.62,782.072 1210.12,778.239 1209,773.5C 1208.5,760.838 1208.33,748.171 1208.5,735.5 Z"/></g>
<g><path style="opacity:0.964" fill="#fcbe13" d="M 1455.5,735.5 C 1459.17,735.5 1462.83,735.5 1466.5,735.5C 1466.5,752.833 1466.5,770.167 1466.5,787.5C 1462.83,787.5 1459.17,787.5 1455.5,787.5C 1455.5,770.167 1455.5,752.833 1455.5,735.5 Z"/></g>
</svg>
